# xmcd
#
# Track frame offsets: 
#        150
#        17523
#        28188
#        42846
#        54865
#        66153
#        81672
#        97410
#        108429
#        121526
#        134801
#        148647
#        158126
#        171509
#        181601
#        191368
#        204639
#        214067
#        223387
#        231915
#        240335
#        249632
#        258585
#        267463
#        277001
#        285525
#
# Disc length: 4002 seconds
#
# Revision: 3
# Processed by: cddbd v1.5.2PL0 Copyright (c) Steve Scherf et al.
# Submitted via: ExactAudioCopy v1.1
#
DISCID=920fa01a
DTITLE=Tennessee Ernie Ford - 8 Classic Albums_CD4
DYEAR=2016
DGENRE=Country
TTITLE0=What a friend we have in Jesus
TTITLE1=Jesus, savior, pilot me
TTITLE2=His eye in on the sparrow
TTITLE3=Beautiful isle of somewhere
TTITLE4=Now the day is over
TTITLE5=Nearer, my God to thee
TTITLE6=Sweet peace the gift of God's love
TTITLE7=Whispering hope
TTITLE8=Lord, I'm coming home
TTITLE9=I need thee every hour
TTITLE10=Take time to be holy
TTITLE11=God be with you
TTITLE12=Onward, Christian soldiers
TTITLE13=Oh how I love Jesus
TTITLE14=The church in the wildwood
TTITLE15=I love to tell the story
TTITLE16=The home over there
TTITLE17=Count your blessings
TTITLE18=All hail the power
TTITLE19=There is power in the blood
TTITLE20=When the roll is called up yonder
TTITLE21=Shall we gather at the river
TTITLE22=Bringing in the sheaves
TTITLE23=Brighten the corner where you are
TTITLE24=Jesus loves me
TTITLE25=What a friend we have in Jesus
EXTD=
EXTT0=
EXTT1=
EXTT2=
EXTT3=
EXTT4=
EXTT5=
EXTT6=
EXTT7=
EXTT8=
EXTT9=
EXTT10=
EXTT11=
EXTT12=
EXTT13=
EXTT14=
EXTT15=
EXTT16=
EXTT17=
EXTT18=
EXTT19=
EXTT20=
EXTT21=
EXTT22=
EXTT23=
EXTT24=
EXTT25=
PLAYORDER=
